<svg xmlns="http://www.w3.org/2000/svg" data-name="Layer 1" viewBox="0 0 512 512"><path fill="#66c1ff" d="M504.5 256a247.51 247.51 0 0 1-21.37 101C444.44 443.89 357.29 504.5 256 504.5a250.88 250.88 0 0 1-32-2.05 248.57 248.57 0 0 1-80.3-468.19A248.47 248.47 0 0 1 504.5 256Z"/><path fill="#63ea86" d="M473.17 135.11h-.1c-15.6-12-41.59-27.65-74.49-29.24-10.24-.5-18.56-.9-28.48 3-26.6 10.5-24.63 36.21-46.48 45.72-21 9.16-53.06-1.56-63.44-20.43-10.88-19.78 7.88-37.78-3.26-52.62-10.68-14.24-32.92-4.28-64.58-14.73C169 59.12 153 44.49 143.71 34.26a248.71 248.71 0 0 1 329.46 100.85zM483.13 357C444.44 443.89 357.29 504.5 256 504.5a250.88 250.88 0 0 1-32-2.05 136.15 136.15 0 0 1 25.23-49.91c29-35.71 57.58-30.78 76.19-57.53 28-40.28-9.07-91.27 9.68-107.52 13.08-11.33 50.15-3 148.07 69.48zm-359.76 39A357.15 357.15 0 0 1 96 429.7c-3.54 3.78-6.56 6.81-8.62 8.84a248.51 248.51 0 0 1-27.81-334.8c10.53 4 25.85 11.72 35.83 27.07 21.93 33.74-7 65.79 10.52 106.49 16 37.22 48.61 29.87 56.25 62.4 7.21 30.55-15.4 62.87-38.8 96.3z"/><rect width="220.22" height="146.52" x="145.89" y="206.7" fill="#ffc166" rx="14.45"/><path fill="#ffb74e" d="M366.11 221.16a14.45 14.45 0 0 0-14.45-14.46h-30a14.45 14.45 0 0 1 14.45 14.46v117.61a14.45 14.45 0 0 1-14.45 14.45h30a14.45 14.45 0 0 0 14.45-14.45Z"/><path fill="#676e87" d="M306.47 229.2H205.53a7.5 7.5 0 0 1-7.5-7.5v-46.95a23.5 23.5 0 0 1 23.47-23.47h69a23.5 23.5 0 0 1 23.5 23.47v46.95a7.5 7.5 0 0 1-7.53 7.5Zm-93.47-15h86v-39.45a8.48 8.48 0 0 0-8.47-8.47h-69a8.48 8.48 0 0 0-8.47 8.47Z"/><path fill="#ffae36" d="m366.11 250.67-100.55 43.76a23.9 23.9 0 0 1-19.12 0l-100.55-43.76v-29.51a14.45 14.45 0 0 1 14.45-14.46h191.32a14.45 14.45 0 0 1 14.45 14.46Z"/><path fill="#ffa41f" d="M359.32 208.91a14.44 14.44 0 0 0-7.66-2.21h-30a14.45 14.45 0 0 1 14.45 14.46v42.57l30-13.06v-29.51a14.45 14.45 0 0 0-6.79-12.25Z"/></svg>